<?xml version="1.0" standalone="no"?>
<!DOCTYPE svg PUBLIC "-//W3C//DTD SVG 20010904//EN"
 "http://www.w3.org/TR/2001/REC-SVG-20010904/DTD/svg10.dtd">
<svg version="1.0" xmlns="http://www.w3.org/2000/svg"
 width="250.000000pt" height="250.000000pt" viewBox="0 0 250.000000 250.000000"
 preserveAspectRatio="xMidYMid meet">

<g transform="translate(0.000000,250.000000) scale(0.100000,-0.100000)"
fill="#000000" stroke="none">
<path d="M0 1250 l0 -1250 1250 0 1250 0 0 1250 0 1250 -1250 0 -1250 0 0
-1250z m1105 1082 c-101 -55 -962 -492 -969 -492 -3 0 -6 119 -6 265 l0 265
523 0 522 0 -70 -38z m1265 -227 l0 -266 -447 227 c-247 125 -479 245 -518
266 l-70 38 518 0 517 0 0 -265z m-1440 -448 l6 -52 10 34 c14 47 28 49 40 4
l10 -38 8 58 c4 31 12 57 18 57 6 0 8 -13 5 -32 -3 -18 -9 -52 -12 -75 -8 -54
-30 -56 -40 -5 l-8 37 -10 -37 c-14 -59 -32 -47 -44 30 -10 64 -8 90 5 77 4
-3 9 -30 12 -58z m334 57 c27 -10 18 -22 -15 -20 -45 2 -47 -20 -5 -41 40 -19
54 -46 35 -69 -15 -18 -80 -15 -87 4 -3 9 2 10 22 2 62 -23 76 20 16 50 -43
22 -49 39 -24 64 16 17 33 20 58 10z m150 -3 c3 -4 -13 -34 -35 -65 l-40 -56
40 0 c23 0 41 -4 41 -10 0 -5 -25 -10 -56 -10 l-56 0 17 28 c10 15 29 43 42
62 l23 35 -35 3 c-19 2 -35 7 -35 13 0 11 87 12 94 0z m-1075 -63 c12 -34 21
-66 21 -70 0 -17 -18 -7 -23 12 -3 14 -14 20 -32 20 -18 0 -29 -6 -32 -20 -3
-11 -10 -20 -15 -20 -6 0 -8 6 -5 13 2 6 13 38 23 70 10 31 23 57 30 57 7 0
22 -28 33 -62z m106 12 c14 -27 27 -50 29 -50 1 0 4 21 5 47 2 75 11 63 11
-15 0 -40 -3 -72 -8 -72 -4 0 -18 21 -32 47 l-25 48 -3 -48 c-5 -73 -22 -55
-22 23 0 39 4 70 10 70 5 0 21 -22 35 -50z m169 34 c20 -20 20 -73 0 -102 -11
-15 -25 -22 -50 -22 l-34 0 0 70 0 70 34 0 c19 0 42 -7 50 -16z m134 4 c16
-16 15 -33 -3 -52 -14 -14 -14 -18 0 -46 8 -16 11 -30 6 -30 -6 0 -17 14 -26
30 -9 17 -22 30 -30 30 -10 0 -15 -10 -15 -30 0 -16 -4 -30 -10 -30 -6 0 -10
30 -10 70 l0 70 38 0 c21 0 43 -5 50 -12z m107 3 c-31 -5 -40 -10 -40 -26 0
-14 9 -22 30 -26 l30 -6 -30 -4 c-22 -3 -31 -10 -33 -26 -3 -20 1 -23 32 -23
19 0 38 -4 41 -10 4 -6 -13 -10 -44 -10 l-51 0 0 70 0 70 53 -1 c51 -2 51 -2
12 -8z m624 -28 l19 -38 16 38 c9 20 21 37 26 37 6 0 1 -18 -10 -40 -11 -21
-20 -53 -20 -70 0 -16 -4 -30 -10 -30 -5 0 -10 9 -10 20 0 12 -11 43 -25 70
-14 28 -21 50 -15 50 5 0 18 -17 29 -37z m134 -3 l10 -35 15 38 c24 61 42 48
42 -33 0 -81 -19 -97 -21 -17 -1 51 -1 51 -11 20 -6 -18 -15 -33 -20 -33 -5 0
-14 15 -21 33 l-12 32 -5 -55 -6 -55 -4 73 c-4 59 -2 72 9 70 8 -2 19 -19 24
-38z m186 -22 c12 -34 21 -66 21 -70 0 -17 -18 -7 -23 12 -3 14 -14 20 -32 20
-18 0 -29 -6 -32 -20 -3 -11 -10 -20 -15 -20 -11 0 -10 3 16 83 11 31 25 57
32 57 7 0 22 -28 33 -62z m98 10 l28 -53 3 53 c2 28 6 52 10 52 4 0 6 -31 4
-70 -2 -38 -7 -70 -11 -70 -4 0 -18 23 -31 50 -13 28 -26 50 -30 50 -4 0 -5
-22 -2 -50 3 -33 1 -50 -7 -50 -7 0 -11 25 -11 70 0 39 4 70 10 70 5 0 22 -24
37 -52z m148 43 c-31 -5 -40 -10 -40 -26 0 -11 6 -21 13 -21 40 -4 44 -7 17
-13 -21 -4 -31 -13 -33 -29 -3 -19 1 -22 32 -22 19 0 38 -4 41 -10 4 -6 -13
-10 -44 -10 l-51 0 0 70 0 70 53 -1 c51 -2 51 -2 12 -8z m85 -23 l1 -33 28 33
c15 17 34 32 41 32 9 0 6 -8 -9 -24 l-22 -24 20 -41 c23 -45 25 -51 13 -51 -5
0 -16 16 -25 36 -15 30 -20 34 -32 24 -8 -7 -15 -23 -15 -36 0 -13 -4 -24 -10
-24 -6 0 -10 30 -10 70 0 40 4 70 10 70 6 0 10 -15 10 -32z m-802 -210 c-2 -7
-49 -133 -104 -280 -85 -230 -102 -267 -121 -271 -13 -2 -23 -1 -23 2 -1 3 46
131 102 283 95 255 105 278 127 278 14 0 22 -5 19 -12z m-388 -75 c0 -23 -12
-35 -68 -71 -37 -24 -81 -53 -97 -66 l-29 -23 97 -64 c75 -49 97 -69 97 -86 0
-13 -3 -23 -6 -23 -3 0 -57 35 -120 77 -96 64 -114 81 -112 100 2 16 35 45
118 102 63 44 116 80 118 81 1 0 2 -12 2 -27z m770 -158 c0 -16 -28 -40 -114
-98 -63 -42 -117 -77 -120 -77 -3 0 -6 10 -6 23 0 17 23 37 97 86 l97 64 -30
23 c-16 13 -59 43 -96 66 -58 36 -68 47 -68 71 0 28 1 27 120 -54 90 -62 120
-88 120 -104z m-1175 -415 c4 -7 -2 -9 -19 -4 -33 8 -36 -17 -3 -31 30 -14 29
-49 -2 -53 -13 -2 -28 2 -35 8 -8 9 -4 10 15 5 35 -9 46 10 17 26 -29 15 -38
28 -31 46 6 15 49 18 58 3z m84 -4 c7 -8 11 -30 9 -48 -3 -29 -6 -33 -33 -33
-24 0 -31 5 -33 24 -9 59 27 94 57 57z m92 5 c-31 -8 -40 -31 -12 -31 12 0 21
-4 21 -10 0 -5 -9 -10 -19 -10 -12 0 -21 -8 -24 -22 -2 -13 -5 1 -6 30 l-1 52
33 -1 c29 -1 29 -2 8 -8z m139 -23 c1 -29 2 -31 12 -14 11 19 11 19 24 1 13
-17 14 -16 14 13 0 18 5 32 11 32 7 0 9 -9 5 -22 -3 -13 -6 -35 -6 -50 0 -33
-19 -37 -28 -6 l-5 22 -8 -22 c-11 -29 -29 -28 -29 1 -1 78 -41 92 -51 17 l-6
-45 -1 42 c-2 28 -8 45 -19 52 -14 8 -6 10 35 11 l52 0 0 -32z m130 7 c5 -14
12 -38 16 -53 4 -23 3 -24 -6 -9 -6 9 -17 17 -25 17 -8 0 -19 -8 -25 -17 -9
-15 -10 -14 -6 9 8 37 24 78 31 78 3 0 10 -11 15 -25z m107 9 c3 -9 1 -24 -4
-33 -7 -11 -7 -23 -1 -34 6 -11 5 -17 -1 -17 -5 0 -13 9 -16 20 -3 11 -11 20
-16 20 -5 0 -9 -9 -9 -20 0 -11 -4 -20 -10 -20 -5 0 -10 23 -10 50 0 49 1 50
30 50 19 0 33 -6 37 -16z m81 9 c-34 -5 -38 -33 -5 -34 l22 0 -22 -9 c-32 -13
-29 -38 5 -43 25 -4 25 -4 -5 -6 l-33 -1 0 50 0 50 33 -1 c30 -2 30 -2 5 -6z
m180 0 c-34 -5 -38 -33 -5 -34 l22 0 -22 -9 c-32 -13 -29 -38 5 -43 25 -4 25
-4 -5 -6 l-33 -1 0 50 0 50 33 -1 c30 -2 30 -2 5 -6z m72 -23 c16 -39 28 -38
33 3 3 22 4 15 5 -20 1 -29 -1 -53 -5 -53 -5 0 -17 15 -27 33 l-20 32 -7 -35
c-6 -32 -6 -30 -8 18 -1 58 10 67 29 22z m136 19 c4 -8 0 -9 -15 -4 -16 5 -23
1 -32 -19 -13 -28 1 -56 27 -56 17 0 18 27 2 33 -8 3 -6 6 5 6 12 1 17 -7 17
-24 0 -19 -5 -25 -23 -25 -30 0 -47 18 -47 50 0 14 5 31 12 38 15 15 45 16 54
1z m82 4 c-13 -3 -18 -15 -18 -43 0 -28 5 -40 18 -43 9 -3 -1 -5 -23 -5 -22 0
-32 2 -22 5 12 3 17 14 17 38 0 22 -6 38 -17 44 -14 8 -10 10 22 10 22 -1 32
-3 23 -6z m62 -23 c16 -39 28 -38 33 3 3 22 4 15 5 -20 1 -29 -1 -53 -5 -53
-5 0 -17 15 -27 33 l-20 32 -7 -35 c-6 -32 -6 -30 -8 18 -1 58 10 67 29 22z
m108 23 c-34 -5 -38 -33 -5 -34 l22 0 -22 -9 c-32 -13 -29 -38 5 -43 25 -4 25
-4 -5 -6 l-33 -1 0 50 0 50 33 -1 c30 -2 30 -2 5 -6z m90 0 c-32 -5 -38 -33
-8 -33 11 0 20 -4 20 -9 0 -5 -8 -8 -17 -7 -10 0 -19 -7 -21 -16 -2 -12 5 -18
25 -21 27 -4 27 -4 -4 -6 l-33 -1 0 50 0 50 33 -1 c30 -2 30 -2 5 -6z m120
-17 c2 -10 -1 -22 -8 -26 -9 -6 -9 -13 -1 -29 7 -12 8 -21 2 -21 -5 0 -13 9
-16 20 -3 11 -11 20 -16 20 -5 0 -9 -9 -9 -20 0 -11 -4 -20 -10 -20 -5 0 -10
23 -10 51 l0 50 32 -3 c23 -2 34 -9 36 -22z m-1469 -342 c408 -207 632 -323
640 -330 2 -2 -235 -4 -527 -4 l-532 0 0 270 c0 149 3 270 6 270 3 0 189 -93
413 -206z m1818 -331 c-2 -2 -239 -2 -527 -1 l-522 3 523 267 524 267 3 -266
c1 -146 1 -268 -1 -270z"/>
<path d="M297 1668 c-10 -34 -9 -38 8 -38 16 0 20 27 6 48 -6 10 -10 8 -14
-10z"/>
<path d="M550 1640 c0 -62 8 -68 48 -37 20 15 15 75 -7 87 -35 18 -41 12 -41
-50z"/>
<path d="M680 1675 c0 -23 4 -26 28 -23 19 2 27 9 27 23 0 14 -8 21 -27 23
-24 3 -28 0 -28 -23z"/>
<path d="M1757 1668 c-10 -34 -9 -38 8 -38 16 0 20 27 6 48 -6 10 -10 8 -14
-10z"/>
<path d="M581 806 c-16 -20 -6 -66 14 -66 21 0 31 48 13 66 -13 13 -16 13 -27
0z"/>
<path d="M957 790 c-3 -12 0 -20 8 -20 8 0 11 8 8 20 -3 11 -7 20 -8 20 -1 0
-5 -9 -8 -20z"/>
<path d="M1040 800 c0 -23 25 -27 33 -6 7 16 -1 26 -20 26 -7 0 -13 -9 -13
-20z"/>
<path d="M1970 800 c0 -11 4 -20 9 -20 13 0 32 26 24 33 -13 14 -33 6 -33 -13z"/>
</g>
</svg>
